# xmcd
# Track frame offsets:
# 203
# 14567
# 28987
# 42612
# 58099
# 73574
# 86807
# 98409
# 113123
# 126238
# 138976
# 153276
# 166002
# 180798
#
# Disc length: 2586 seconds
# Revision: 0
# Processed by: cddbd v1.4PL0 Copyright (c) Steve Scherf et al.
# Submitted via: VisiTrax 2.9.5.181 - For more info visit www.synapsa.com
#
DISCID=b50a180e
DTITLE=Various Artist - Blues Hits [CD1]
DYEAR=1997
DGENRE=vocal
TTITLE0=Harlem Hamfats - Oh Red
TTITLE1=Jimmy Rushing and Count Basie - Good Morning Blues
TTITLE2=Sonny Boy Williamson - Good Morning School Girl
TTITLE3=Peetie Wheatstraw - Shack Bully Stomp
TTITLE4=Big Joe Turner and Pete Johnson - Goin' Away Blues
TTITLE5=Billie Holiday - Fine and Mellow
TTITLE6=Lonnie Johnson - The Loveless BLues
TTITLE7=Louis Armstrong - 2/19 Blues
TTITLE8=Billy Eckstine and Earl Hines - Jelly Jelly
TTITLE9=Lil Green - Romance In the Dark
TTITLE10=Big Bill Broonzy - I Feel So Good
TTITLE11=Big Joe Williams - Please Don't Go
TTITLE12=Memphis Slim - Beer Drinking Woman
TTITLE13=Louis Jordan and His Tympany Five - Mama Mama Blues(Rusty Dusty Blues)
EXTD=
EXTT0=
EXTT1=
EXTT2=
EXTT3=
EXTT4=
EXTT5=
EXTT6=
EXTT7=
EXTT8=
EXTT9=
EXTT10=
EXTT11=
EXTT12=
EXTT13=
PLAYORDER=
